<svg width="600" height="480" viewBox="0 0 600 480" fill="none" xmlns="http://www.w3.org/2000/svg">
<rect width="600" height="480" fill="white"/>
<path d="M287.327 53.5918H283.214V65H281.535V53.5918H277.431V52.2031H287.327V53.5918ZM287.661 60.1572C287.661 59.2256 287.843 58.3877 288.206 57.6436C288.575 56.8994 289.085 56.3252 289.735 55.9209C290.392 55.5166 291.139 55.3145 291.977 55.3145C293.271 55.3145 294.317 55.7627 295.114 56.6592C295.917 57.5557 296.318 58.748 296.318 60.2363V60.3506C296.318 61.2764 296.14 62.1084 295.782 62.8467C295.431 63.5791 294.924 64.1504 294.262 64.5605C293.605 64.9707 292.85 65.1758 291.994 65.1758C290.705 65.1758 289.659 64.7275 288.856 63.8311C288.06 62.9346 287.661 61.748 287.661 60.2715V60.1572ZM289.296 60.3506C289.296 61.4053 289.539 62.252 290.025 62.8906C290.518 63.5293 291.174 63.8486 291.994 63.8486C292.82 63.8486 293.477 63.5264 293.963 62.8818C294.449 62.2314 294.692 61.3232 294.692 60.1572C294.692 59.1143 294.443 58.2705 293.945 57.626C293.453 56.9756 292.797 56.6504 291.977 56.6504C291.174 56.6504 290.526 56.9697 290.034 57.6084C289.542 58.2471 289.296 59.1611 289.296 60.3506ZM306.391 60.3506C306.391 61.7979 306.06 62.9639 305.397 63.8486C304.735 64.7334 303.839 65.1758 302.708 65.1758C301.554 65.1758 300.646 64.8096 299.983 64.0771V68.6562H298.357V55.4902H299.843L299.922 56.5449C300.584 55.7246 301.504 55.3145 302.682 55.3145C303.824 55.3145 304.727 55.7451 305.389 56.6064C306.057 57.4678 306.391 58.666 306.391 60.2012V60.3506ZM304.765 60.166C304.765 59.0938 304.536 58.2471 304.079 57.626C303.622 57.0049 302.995 56.6943 302.198 56.6943C301.214 56.6943 300.476 57.1309 299.983 58.0039V62.5479C300.47 63.415 301.214 63.8486 302.216 63.8486C302.995 63.8486 303.613 63.541 304.07 62.9258C304.533 62.3047 304.765 61.3848 304.765 60.166ZM310.231 65H308.605V55.4902H310.231V65ZM308.474 52.9678C308.474 52.7041 308.553 52.4814 308.711 52.2998C308.875 52.1182 309.115 52.0273 309.432 52.0273C309.748 52.0273 309.988 52.1182 310.152 52.2998C310.316 52.4814 310.398 52.7041 310.398 52.9678C310.398 53.2314 310.316 53.4512 310.152 53.627C309.988 53.8027 309.748 53.8906 309.432 53.8906C309.115 53.8906 308.875 53.8027 308.711 53.627C308.553 53.4512 308.474 53.2314 308.474 52.9678ZM316.656 63.8486C317.236 63.8486 317.743 63.6729 318.177 63.3213C318.61 62.9697 318.851 62.5303 318.897 62.0029H320.436C320.406 62.5479 320.219 63.0664 319.873 63.5586C319.527 64.0508 319.064 64.4434 318.484 64.7363C317.91 65.0293 317.301 65.1758 316.656 65.1758C315.361 65.1758 314.33 64.7451 313.562 63.8838C312.801 63.0166 312.42 61.833 312.42 60.333V60.0605C312.42 59.1348 312.59 58.3115 312.93 57.5908C313.27 56.8701 313.756 56.3105 314.389 55.9121C315.027 55.5137 315.78 55.3145 316.647 55.3145C317.714 55.3145 318.599 55.6338 319.302 56.2725C320.011 56.9111 320.389 57.7402 320.436 58.7598H318.897C318.851 58.1445 318.616 57.6406 318.194 57.248C317.778 56.8496 317.263 56.6504 316.647 56.6504C315.821 56.6504 315.18 56.9492 314.723 57.5469C314.271 58.1387 314.046 58.9971 314.046 60.1221V60.4297C314.046 61.5254 314.271 62.3691 314.723 62.9609C315.174 63.5527 315.818 63.8486 316.656 63.8486Z" fill="black"/>
<circle cx="300" cy="112" r="9" fill="#C4C4C4"/>
<path d="M280.757 145.345C280.757 146.306 280.604 147.136 280.299 147.833C279.993 148.526 279.565 149.068 279.014 149.46L280.791 150.854L279.896 151.682L277.797 150.014C277.469 150.096 277.122 150.137 276.758 150.137C275.974 150.137 275.279 149.945 274.673 149.562C274.067 149.175 273.595 148.626 273.258 147.915C272.925 147.2 272.754 146.372 272.745 145.434V144.716C272.745 143.759 272.911 142.913 273.244 142.18C273.577 141.446 274.046 140.885 274.652 140.498C275.263 140.106 275.96 139.91 276.744 139.91C277.546 139.91 278.25 140.104 278.856 140.491C279.467 140.879 279.937 141.437 280.265 142.166C280.593 142.891 280.757 143.738 280.757 144.709V145.345ZM279.444 144.702C279.444 143.531 279.21 142.629 278.74 141.995C278.275 141.357 277.61 141.038 276.744 141.038C275.919 141.038 275.268 141.355 274.789 141.988C274.315 142.617 274.071 143.492 274.058 144.613V145.345C274.058 146.484 274.295 147.382 274.769 148.038C275.247 148.694 275.91 149.022 276.758 149.022C277.605 149.022 278.262 148.715 278.727 148.1C279.191 147.48 279.431 146.593 279.444 145.44V144.702ZM287.148 149.269C286.656 149.847 285.934 150.137 284.981 150.137C284.193 150.137 283.591 149.909 283.177 149.453C282.767 148.993 282.559 148.314 282.555 147.416V142.604H283.819V147.382C283.819 148.503 284.275 149.063 285.187 149.063C286.153 149.063 286.795 148.703 287.114 147.983V142.604H288.379V150H287.176L287.148 149.269ZM293.376 150.137C292.373 150.137 291.558 149.809 290.929 149.152C290.3 148.492 289.985 147.61 289.985 146.507V146.274C289.985 145.541 290.124 144.887 290.402 144.312C290.685 143.734 291.077 143.283 291.578 142.959C292.084 142.631 292.631 142.467 293.219 142.467C294.18 142.467 294.928 142.784 295.461 143.417C295.994 144.05 296.261 144.957 296.261 146.138V146.664H291.25C291.268 147.393 291.48 147.983 291.886 148.435C292.296 148.881 292.815 149.104 293.444 149.104C293.891 149.104 294.269 149.013 294.579 148.831C294.889 148.649 295.16 148.407 295.393 148.106L296.165 148.708C295.545 149.66 294.616 150.137 293.376 150.137ZM293.219 143.506C292.708 143.506 292.28 143.693 291.934 144.066C291.587 144.436 291.373 144.955 291.291 145.625H294.996V145.529C294.96 144.887 294.786 144.39 294.477 144.039C294.167 143.684 293.747 143.506 293.219 143.506ZM302.037 148.038C302.037 147.696 301.907 147.432 301.647 147.245C301.392 147.054 300.943 146.89 300.301 146.753C299.663 146.616 299.155 146.452 298.776 146.261C298.403 146.069 298.125 145.841 297.942 145.577C297.765 145.313 297.676 144.998 297.676 144.634C297.676 144.028 297.931 143.515 298.441 143.096C298.956 142.676 299.613 142.467 300.41 142.467C301.249 142.467 301.928 142.683 302.447 143.116C302.971 143.549 303.233 144.103 303.233 144.777H301.962C301.962 144.431 301.814 144.132 301.518 143.882C301.226 143.631 300.857 143.506 300.41 143.506C299.95 143.506 299.59 143.606 299.33 143.807C299.07 144.007 298.94 144.269 298.94 144.593C298.94 144.898 299.061 145.128 299.303 145.283C299.544 145.438 299.979 145.586 300.608 145.728C301.242 145.869 301.755 146.037 302.146 146.233C302.538 146.429 302.828 146.666 303.015 146.944C303.206 147.218 303.302 147.553 303.302 147.949C303.302 148.61 303.037 149.141 302.509 149.542C301.98 149.938 301.294 150.137 300.451 150.137C299.859 150.137 299.335 150.032 298.879 149.822C298.423 149.613 298.065 149.321 297.806 148.947C297.55 148.569 297.423 148.161 297.423 147.724H298.688C298.71 148.147 298.879 148.485 299.193 148.735C299.512 148.981 299.932 149.104 300.451 149.104C300.93 149.104 301.312 149.009 301.6 148.817C301.891 148.621 302.037 148.362 302.037 148.038ZM306.665 140.812V142.604H308.046V143.581H306.665V148.168C306.665 148.464 306.727 148.688 306.85 148.838C306.973 148.984 307.182 149.057 307.479 149.057C307.624 149.057 307.825 149.029 308.08 148.975V150C307.747 150.091 307.424 150.137 307.109 150.137C306.544 150.137 306.118 149.966 305.831 149.624C305.544 149.282 305.4 148.797 305.4 148.168V143.581H304.054V142.604H305.4V140.812H306.665ZM310.903 150H309.639V142.604H310.903V150ZM309.536 140.642C309.536 140.437 309.598 140.263 309.721 140.122C309.848 139.981 310.035 139.91 310.281 139.91C310.527 139.91 310.714 139.981 310.842 140.122C310.969 140.263 311.033 140.437 311.033 140.642C311.033 140.847 310.969 141.018 310.842 141.154C310.714 141.291 310.527 141.359 310.281 141.359C310.035 141.359 309.848 141.291 309.721 141.154C309.598 141.018 309.536 140.847 309.536 140.642ZM312.599 146.233C312.599 145.509 312.74 144.857 313.022 144.278C313.31 143.7 313.706 143.253 314.212 142.938C314.722 142.624 315.303 142.467 315.955 142.467C316.962 142.467 317.776 142.815 318.396 143.513C319.02 144.21 319.332 145.137 319.332 146.295V146.384C319.332 147.104 319.193 147.751 318.915 148.325C318.642 148.895 318.247 149.339 317.732 149.658C317.222 149.977 316.634 150.137 315.969 150.137C314.966 150.137 314.153 149.788 313.528 149.091C312.909 148.394 312.599 147.471 312.599 146.322V146.233ZM313.87 146.384C313.87 147.204 314.059 147.863 314.438 148.359C314.82 148.856 315.331 149.104 315.969 149.104C316.611 149.104 317.122 148.854 317.5 148.353C317.878 147.847 318.067 147.14 318.067 146.233C318.067 145.422 317.874 144.766 317.486 144.265C317.104 143.759 316.593 143.506 315.955 143.506C315.331 143.506 314.827 143.754 314.444 144.251C314.062 144.748 313.87 145.459 313.87 146.384ZM322.114 142.604L322.155 143.533C322.72 142.822 323.459 142.467 324.37 142.467C325.933 142.467 326.722 143.349 326.735 145.112V150H325.471V145.105C325.466 144.572 325.343 144.178 325.102 143.923C324.865 143.668 324.493 143.54 323.987 143.54C323.577 143.54 323.217 143.649 322.907 143.868C322.597 144.087 322.356 144.374 322.183 144.729V150H320.918V142.604H322.114Z" fill="black"/>
<circle cx="394" cy="180" r="9" fill="#C4C4C4"/>
<path d="M365.477 214.842C365.354 215.895 364.964 216.708 364.308 217.282C363.656 217.852 362.788 218.137 361.703 218.137C360.527 218.137 359.584 217.715 358.873 216.872C358.167 216.029 357.813 214.901 357.813 213.488V212.531C357.813 211.606 357.978 210.793 358.306 210.091C358.638 209.389 359.108 208.851 359.714 208.478C360.32 208.099 361.022 207.91 361.819 207.91C362.877 207.91 363.724 208.206 364.362 208.799C365 209.387 365.372 210.202 365.477 211.246H364.157C364.043 210.453 363.795 209.879 363.412 209.523C363.034 209.168 362.503 208.99 361.819 208.99C360.981 208.99 360.322 209.3 359.844 209.92C359.37 210.54 359.133 211.422 359.133 212.565V213.529C359.133 214.609 359.358 215.468 359.81 216.106C360.261 216.744 360.892 217.063 361.703 217.063C362.432 217.063 362.991 216.899 363.378 216.571C363.77 216.239 364.03 215.662 364.157 214.842H365.477ZM368.45 218H367.186V207.5H368.45V218ZM375.047 218C374.974 217.854 374.915 217.594 374.869 217.221C374.281 217.831 373.579 218.137 372.764 218.137C372.035 218.137 371.435 217.932 370.966 217.521C370.501 217.107 370.269 216.583 370.269 215.949C370.269 215.179 370.56 214.582 371.144 214.158C371.731 213.73 372.556 213.516 373.618 213.516H374.849V212.935C374.849 212.493 374.716 212.142 374.452 211.882C374.188 211.618 373.798 211.485 373.283 211.485C372.832 211.485 372.454 211.599 372.148 211.827C371.843 212.055 371.69 212.331 371.69 212.654H370.419C370.419 212.285 370.549 211.93 370.809 211.588C371.073 211.242 371.428 210.968 371.875 210.768C372.326 210.567 372.821 210.467 373.358 210.467C374.211 210.467 374.878 210.681 375.361 211.109C375.844 211.533 376.095 212.119 376.113 212.866V216.271C376.113 216.95 376.2 217.49 376.373 217.891V218H375.047ZM372.948 217.036C373.345 217.036 373.721 216.934 374.076 216.729C374.432 216.523 374.689 216.257 374.849 215.929V214.411H373.857C372.308 214.411 371.533 214.865 371.533 215.771C371.533 216.168 371.665 216.478 371.93 216.701C372.194 216.924 372.534 217.036 372.948 217.036ZM381.671 211.738C381.479 211.706 381.272 211.69 381.049 211.69C380.219 211.69 379.657 212.044 379.36 212.75V218H378.096V210.604H379.326L379.347 211.458C379.761 210.797 380.349 210.467 381.11 210.467C381.356 210.467 381.543 210.499 381.671 210.562V211.738ZM384.214 218H382.949V210.604H384.214V218ZM382.847 208.642C382.847 208.437 382.908 208.263 383.031 208.122C383.159 207.981 383.346 207.91 383.592 207.91C383.838 207.91 384.025 207.981 384.152 208.122C384.28 208.263 384.344 208.437 384.344 208.642C384.344 208.847 384.28 209.018 384.152 209.154C384.025 209.291 383.838 209.359 383.592 209.359C383.346 209.359 383.159 209.291 383.031 209.154C382.908 209.018 382.847 208.847 382.847 208.642ZM386.668 218V211.581H385.499V210.604H386.668V209.975C386.668 209.15 386.903 208.507 387.372 208.047C387.846 207.587 388.514 207.356 389.375 207.356C389.885 207.356 390.53 207.495 391.31 207.773L391.098 208.84C390.528 208.612 389.986 208.498 389.471 208.498C388.928 208.498 388.536 208.621 388.295 208.867C388.058 209.109 387.939 209.473 387.939 209.961V210.604H389.45V211.581H387.939V218H386.668ZM391.938 218H390.667V210.604H391.938V218ZM396.963 217.104C397.414 217.104 397.808 216.968 398.146 216.694C398.483 216.421 398.67 216.079 398.706 215.669H399.902C399.88 216.093 399.734 216.496 399.465 216.879C399.196 217.262 398.836 217.567 398.385 217.795C397.938 218.023 397.464 218.137 396.963 218.137C395.956 218.137 395.154 217.802 394.557 217.132C393.964 216.457 393.668 215.537 393.668 214.37V214.158C393.668 213.438 393.8 212.798 394.064 212.237C394.329 211.677 394.707 211.242 395.199 210.932C395.696 210.622 396.282 210.467 396.956 210.467C397.785 210.467 398.474 210.715 399.021 211.212C399.572 211.709 399.866 212.354 399.902 213.146H398.706C398.67 212.668 398.487 212.276 398.159 211.971C397.836 211.661 397.435 211.506 396.956 211.506C396.313 211.506 395.814 211.738 395.459 212.203C395.108 212.663 394.933 213.331 394.933 214.206V214.445C394.933 215.298 395.108 215.954 395.459 216.414C395.81 216.874 396.311 217.104 396.963 217.104ZM405.891 218C405.818 217.854 405.758 217.594 405.713 217.221C405.125 217.831 404.423 218.137 403.607 218.137C402.878 218.137 402.279 217.932 401.81 217.521C401.345 217.107 401.112 216.583 401.112 215.949C401.112 215.179 401.404 214.582 401.987 214.158C402.575 213.73 403.4 213.516 404.462 213.516H405.692V212.935C405.692 212.493 405.56 212.142 405.296 211.882C405.032 211.618 404.642 211.485 404.127 211.485C403.676 211.485 403.298 211.599 402.992 211.827C402.687 212.055 402.534 212.331 402.534 212.654H401.263C401.263 212.285 401.393 211.93 401.652 211.588C401.917 211.242 402.272 210.968 402.719 210.768C403.17 210.567 403.664 210.467 404.202 210.467C405.054 210.467 405.722 210.681 406.205 211.109C406.688 211.533 406.939 212.119 406.957 212.866V216.271C406.957 216.95 407.044 217.49 407.217 217.891V218H405.891ZM403.792 217.036C404.188 217.036 404.564 216.934 404.92 216.729C405.275 216.523 405.533 216.257 405.692 215.929V214.411H404.701C403.152 214.411 402.377 214.865 402.377 215.771C402.377 216.168 402.509 216.478 402.773 216.701C403.038 216.924 403.377 217.036 403.792 217.036ZM410.655 208.812V210.604H412.036V211.581H410.655V216.168C410.655 216.464 410.717 216.688 410.84 216.838C410.963 216.984 411.173 217.057 411.469 217.057C411.615 217.057 411.815 217.029 412.07 216.975V218C411.738 218.091 411.414 218.137 411.1 218.137C410.535 218.137 410.108 217.966 409.821 217.624C409.534 217.282 409.391 216.797 409.391 216.168V211.581H408.044V210.604H409.391V208.812H410.655ZM414.894 218H413.629V210.604H414.894V218ZM413.526 208.642C413.526 208.437 413.588 208.263 413.711 208.122C413.839 207.981 414.025 207.91 414.271 207.91C414.518 207.91 414.704 207.981 414.832 208.122C414.96 208.263 415.023 208.437 415.023 208.642C415.023 208.847 414.96 209.018 414.832 209.154C414.704 209.291 414.518 209.359 414.271 209.359C414.025 209.359 413.839 209.291 413.711 209.154C413.588 209.018 413.526 208.847 413.526 208.642ZM416.589 214.233C416.589 213.509 416.73 212.857 417.013 212.278C417.3 211.7 417.696 211.253 418.202 210.938C418.713 210.624 419.294 210.467 419.945 210.467C420.952 210.467 421.766 210.815 422.386 211.513C423.01 212.21 423.322 213.137 423.322 214.295V214.384C423.322 215.104 423.183 215.751 422.905 216.325C422.632 216.895 422.238 217.339 421.723 217.658C421.212 217.977 420.624 218.137 419.959 218.137C418.956 218.137 418.143 217.788 417.519 217.091C416.899 216.394 416.589 215.471 416.589 214.322V214.233ZM417.86 214.384C417.86 215.204 418.049 215.863 418.428 216.359C418.811 216.856 419.321 217.104 419.959 217.104C420.602 217.104 421.112 216.854 421.49 216.353C421.868 215.847 422.058 215.14 422.058 214.233C422.058 213.422 421.864 212.766 421.477 212.265C421.094 211.759 420.583 211.506 419.945 211.506C419.321 211.506 418.817 211.754 418.435 212.251C418.052 212.748 417.86 213.459 417.86 214.384ZM426.104 210.604L426.146 211.533C426.711 210.822 427.449 210.467 428.36 210.467C429.924 210.467 430.712 211.349 430.726 213.112V218H429.461V213.105C429.456 212.572 429.333 212.178 429.092 211.923C428.855 211.668 428.483 211.54 427.978 211.54C427.567 211.54 427.207 211.649 426.897 211.868C426.588 212.087 426.346 212.374 426.173 212.729V218H424.908V210.604H426.104Z" fill="black"/>
<circle cx="210" cy="180" r="9" fill="#C4C4C4"/>
<path d="M175.477 214.842C175.354 215.895 174.964 216.708 174.308 217.282C173.656 217.852 172.788 218.137 171.703 218.137C170.527 218.137 169.584 217.715 168.873 216.872C168.167 216.029 167.813 214.901 167.813 213.488V212.531C167.813 211.606 167.978 210.793 168.306 210.091C168.638 209.389 169.108 208.851 169.714 208.478C170.32 208.099 171.022 207.91 171.819 207.91C172.877 207.91 173.724 208.206 174.362 208.799C175 209.387 175.372 210.202 175.477 211.246H174.157C174.043 210.453 173.795 209.879 173.412 209.523C173.034 209.168 172.503 208.99 171.819 208.99C170.981 208.99 170.322 209.3 169.844 209.92C169.37 210.54 169.133 211.422 169.133 212.565V213.529C169.133 214.609 169.358 215.468 169.81 216.106C170.261 216.744 170.892 217.063 171.703 217.063C172.432 217.063 172.991 216.899 173.378 216.571C173.77 216.239 174.03 215.662 174.157 214.842H175.477ZM176.741 214.233C176.741 213.509 176.882 212.857 177.165 212.278C177.452 211.7 177.849 211.253 178.354 210.938C178.865 210.624 179.446 210.467 180.098 210.467C181.105 210.467 181.918 210.815 182.538 211.513C183.162 212.21 183.475 213.137 183.475 214.295V214.384C183.475 215.104 183.336 215.751 183.058 216.325C182.784 216.895 182.39 217.339 181.875 217.658C181.365 217.977 180.777 218.137 180.111 218.137C179.109 218.137 178.295 217.788 177.671 217.091C177.051 216.394 176.741 215.471 176.741 214.322V214.233ZM178.013 214.384C178.013 215.204 178.202 215.863 178.58 216.359C178.963 216.856 179.473 217.104 180.111 217.104C180.754 217.104 181.264 216.854 181.643 216.353C182.021 215.847 182.21 215.14 182.21 214.233C182.21 213.422 182.016 212.766 181.629 212.265C181.246 211.759 180.736 211.506 180.098 211.506C179.473 211.506 178.97 211.754 178.587 212.251C178.204 212.748 178.013 213.459 178.013 214.384ZM186.257 210.604L186.298 211.533C186.863 210.822 187.601 210.467 188.513 210.467C190.076 210.467 190.864 211.349 190.878 213.112V218H189.613V213.105C189.609 212.572 189.486 212.178 189.244 211.923C189.007 211.668 188.636 211.54 188.13 211.54C187.72 211.54 187.36 211.649 187.05 211.868C186.74 212.087 186.498 212.374 186.325 212.729V218H185.061V210.604H186.257ZM197.092 216.038C197.092 215.696 196.962 215.432 196.702 215.245C196.447 215.054 195.998 214.89 195.355 214.753C194.717 214.616 194.209 214.452 193.831 214.261C193.457 214.069 193.179 213.841 192.997 213.577C192.819 213.313 192.73 212.998 192.73 212.634C192.73 212.028 192.986 211.515 193.496 211.096C194.011 210.676 194.667 210.467 195.465 210.467C196.303 210.467 196.982 210.683 197.502 211.116C198.026 211.549 198.288 212.103 198.288 212.777H197.017C197.017 212.431 196.868 212.132 196.572 211.882C196.281 211.631 195.911 211.506 195.465 211.506C195.005 211.506 194.645 211.606 194.385 211.807C194.125 212.007 193.995 212.269 193.995 212.593C193.995 212.898 194.116 213.128 194.357 213.283C194.599 213.438 195.034 213.586 195.663 213.728C196.297 213.869 196.809 214.037 197.201 214.233C197.593 214.429 197.882 214.666 198.069 214.944C198.261 215.218 198.356 215.553 198.356 215.949C198.356 216.61 198.092 217.141 197.563 217.542C197.035 217.938 196.349 218.137 195.506 218.137C194.913 218.137 194.389 218.032 193.934 217.822C193.478 217.613 193.12 217.321 192.86 216.947C192.605 216.569 192.478 216.161 192.478 215.724H193.742C193.765 216.147 193.934 216.485 194.248 216.735C194.567 216.981 194.986 217.104 195.506 217.104C195.984 217.104 196.367 217.009 196.654 216.817C196.946 216.621 197.092 216.362 197.092 216.038ZM201.378 218H200.113V210.604H201.378V218ZM200.011 208.642C200.011 208.437 200.072 208.263 200.195 208.122C200.323 207.981 200.51 207.91 200.756 207.91C201.002 207.91 201.189 207.981 201.316 208.122C201.444 208.263 201.508 208.437 201.508 208.642C201.508 208.847 201.444 209.018 201.316 209.154C201.189 209.291 201.002 209.359 200.756 209.359C200.51 209.359 200.323 209.291 200.195 209.154C200.072 209.018 200.011 208.847 200.011 208.642ZM203.101 214.24C203.101 213.105 203.369 212.194 203.907 211.506C204.445 210.813 205.149 210.467 206.02 210.467C206.885 210.467 207.571 210.763 208.077 211.355V207.5H209.342V218H208.18L208.118 217.207C207.612 217.827 206.908 218.137 206.006 218.137C205.149 218.137 204.45 217.786 203.907 217.084C203.369 216.382 203.101 215.466 203.101 214.336V214.24ZM204.365 214.384C204.365 215.222 204.538 215.879 204.885 216.353C205.231 216.826 205.71 217.063 206.32 217.063C207.122 217.063 207.708 216.703 208.077 215.983V212.586C207.699 211.889 207.118 211.54 206.334 211.54C205.714 211.54 205.231 211.779 204.885 212.258C204.538 212.736 204.365 213.445 204.365 214.384ZM214.38 218.137C213.377 218.137 212.562 217.809 211.933 217.152C211.304 216.492 210.989 215.61 210.989 214.507V214.274C210.989 213.541 211.128 212.887 211.406 212.312C211.689 211.734 212.081 211.283 212.582 210.959C213.088 210.631 213.635 210.467 214.223 210.467C215.184 210.467 215.932 210.784 216.465 211.417C216.998 212.05 217.265 212.957 217.265 214.138V214.664H212.254C212.272 215.393 212.484 215.983 212.89 216.435C213.3 216.881 213.819 217.104 214.448 217.104C214.895 217.104 215.273 217.013 215.583 216.831C215.893 216.649 216.164 216.407 216.396 216.106L217.169 216.708C216.549 217.66 215.619 218.137 214.38 218.137ZM214.223 211.506C213.712 211.506 213.284 211.693 212.938 212.066C212.591 212.436 212.377 212.955 212.295 213.625H216V213.529C215.964 212.887 215.79 212.39 215.48 212.039C215.171 211.684 214.751 211.506 214.223 211.506ZM222.31 211.738C222.118 211.706 221.911 211.69 221.688 211.69C220.858 211.69 220.295 212.044 219.999 212.75V218H218.734V210.604H219.965L219.985 211.458C220.4 210.797 220.988 210.467 221.749 210.467C221.995 210.467 222.182 210.499 222.31 210.562V211.738ZM227.771 218C227.699 217.854 227.639 217.594 227.594 217.221C227.006 217.831 226.304 218.137 225.488 218.137C224.759 218.137 224.16 217.932 223.69 217.521C223.226 217.107 222.993 216.583 222.993 215.949C222.993 215.179 223.285 214.582 223.868 214.158C224.456 213.73 225.281 213.516 226.343 213.516H227.573V212.935C227.573 212.493 227.441 212.142 227.177 211.882C226.912 211.618 226.523 211.485 226.008 211.485C225.557 211.485 225.178 211.599 224.873 211.827C224.568 212.055 224.415 212.331 224.415 212.654H223.144C223.144 212.285 223.273 211.93 223.533 211.588C223.798 211.242 224.153 210.968 224.6 210.768C225.051 210.567 225.545 210.467 226.083 210.467C226.935 210.467 227.603 210.681 228.086 211.109C228.569 211.533 228.82 212.119 228.838 212.866V216.271C228.838 216.95 228.924 217.49 229.098 217.891V218H227.771ZM225.673 217.036C226.069 217.036 226.445 216.934 226.801 216.729C227.156 216.523 227.414 216.257 227.573 215.929V214.411H226.582C225.033 214.411 224.258 214.865 224.258 215.771C224.258 216.168 224.39 216.478 224.654 216.701C224.919 216.924 225.258 217.036 225.673 217.036ZM232.536 208.812V210.604H233.917V211.581H232.536V216.168C232.536 216.464 232.598 216.688 232.721 216.838C232.844 216.984 233.053 217.057 233.35 217.057C233.495 217.057 233.696 217.029 233.951 216.975V218C233.618 218.091 233.295 218.137 232.98 218.137C232.415 218.137 231.989 217.966 231.702 217.624C231.415 217.282 231.271 216.797 231.271 216.168V211.581H229.925V210.604H231.271V208.812H232.536ZM236.774 218H235.51V210.604H236.774V218ZM235.407 208.642C235.407 208.437 235.469 208.263 235.592 208.122C235.719 207.981 235.906 207.91 236.152 207.91C236.398 207.91 236.585 207.981 236.713 208.122C236.84 208.263 236.904 208.437 236.904 208.642C236.904 208.847 236.84 209.018 236.713 209.154C236.585 209.291 236.398 209.359 236.152 209.359C235.906 209.359 235.719 209.291 235.592 209.154C235.469 209.018 235.407 208.847 235.407 208.642ZM238.47 214.233C238.47 213.509 238.611 212.857 238.894 212.278C239.181 211.7 239.577 211.253 240.083 210.938C240.593 210.624 241.174 210.467 241.826 210.467C242.833 210.467 243.647 210.815 244.267 211.513C244.891 212.21 245.203 213.137 245.203 214.295V214.384C245.203 215.104 245.064 215.751 244.786 216.325C244.513 216.895 244.118 217.339 243.604 217.658C243.093 217.977 242.505 218.137 241.84 218.137C240.837 218.137 240.024 217.788 239.399 217.091C238.78 216.394 238.47 215.471 238.47 214.322V214.233ZM239.741 214.384C239.741 215.204 239.93 215.863 240.309 216.359C240.691 216.856 241.202 217.104 241.84 217.104C242.482 217.104 242.993 216.854 243.371 216.353C243.749 215.847 243.938 215.14 243.938 214.233C243.938 213.422 243.745 212.766 243.357 212.265C242.975 211.759 242.464 211.506 241.826 211.506C241.202 211.506 240.698 211.754 240.315 212.251C239.933 212.748 239.741 213.459 239.741 214.384ZM247.985 210.604L248.026 211.533C248.591 210.822 249.33 210.467 250.241 210.467C251.804 210.467 252.593 211.349 252.606 213.112V218H251.342V213.105C251.337 212.572 251.214 212.178 250.973 211.923C250.736 211.668 250.364 211.54 249.858 211.54C249.448 211.54 249.088 211.649 248.778 211.868C248.468 212.087 248.227 212.374 248.054 212.729V218H246.789V210.604H247.985Z" fill="black"/>
<ellipse cx="358" cy="248.5" rx="9" ry="9.5" fill="#C4C4C4"/>
<path d="M338.757 281.345C338.757 282.306 338.604 283.136 338.299 283.833C337.993 284.526 337.565 285.068 337.014 285.46L338.791 286.854L337.896 287.682L335.797 286.014C335.469 286.096 335.122 286.137 334.758 286.137C333.974 286.137 333.279 285.945 332.673 285.562C332.067 285.175 331.595 284.626 331.258 283.915C330.925 283.2 330.754 282.372 330.745 281.434V280.716C330.745 279.759 330.911 278.913 331.244 278.18C331.577 277.446 332.046 276.885 332.652 276.498C333.263 276.106 333.96 275.91 334.744 275.91C335.546 275.91 336.25 276.104 336.856 276.491C337.467 276.879 337.937 277.437 338.265 278.166C338.593 278.891 338.757 279.738 338.757 280.709V281.345ZM337.444 280.702C337.444 279.531 337.21 278.629 336.74 277.995C336.275 277.357 335.61 277.038 334.744 277.038C333.919 277.038 333.268 277.355 332.789 277.988C332.315 278.617 332.071 279.492 332.058 280.613V281.345C332.058 282.484 332.295 283.382 332.769 284.038C333.247 284.694 333.91 285.022 334.758 285.022C335.605 285.022 336.262 284.715 336.727 284.1C337.191 283.48 337.431 282.593 337.444 281.44V280.702ZM345.148 285.269C344.656 285.847 343.934 286.137 342.981 286.137C342.193 286.137 341.591 285.909 341.177 285.453C340.767 284.993 340.559 284.314 340.555 283.416V278.604H341.819V283.382C341.819 284.503 342.275 285.063 343.187 285.063C344.153 285.063 344.795 284.703 345.114 283.983V278.604H346.379V286H345.176L345.148 285.269ZM351.376 286.137C350.373 286.137 349.558 285.809 348.929 285.152C348.3 284.492 347.985 283.61 347.985 282.507V282.274C347.985 281.541 348.124 280.887 348.402 280.312C348.685 279.734 349.077 279.283 349.578 278.959C350.084 278.631 350.631 278.467 351.219 278.467C352.18 278.467 352.928 278.784 353.461 279.417C353.994 280.05 354.261 280.957 354.261 282.138V282.664H349.25C349.268 283.393 349.48 283.983 349.886 284.435C350.296 284.881 350.815 285.104 351.444 285.104C351.891 285.104 352.269 285.013 352.579 284.831C352.889 284.649 353.16 284.407 353.393 284.106L354.165 284.708C353.545 285.66 352.616 286.137 351.376 286.137ZM351.219 279.506C350.708 279.506 350.28 279.693 349.934 280.066C349.587 280.436 349.373 280.955 349.291 281.625H352.996V281.529C352.96 280.887 352.786 280.39 352.477 280.039C352.167 279.684 351.747 279.506 351.219 279.506ZM360.037 284.038C360.037 283.696 359.907 283.432 359.647 283.245C359.392 283.054 358.943 282.89 358.301 282.753C357.663 282.616 357.155 282.452 356.776 282.261C356.403 282.069 356.125 281.841 355.942 281.577C355.765 281.313 355.676 280.998 355.676 280.634C355.676 280.028 355.931 279.515 356.441 279.096C356.956 278.676 357.613 278.467 358.41 278.467C359.249 278.467 359.928 278.683 360.447 279.116C360.971 279.549 361.233 280.103 361.233 280.777H359.962C359.962 280.431 359.814 280.132 359.518 279.882C359.226 279.631 358.857 279.506 358.41 279.506C357.95 279.506 357.59 279.606 357.33 279.807C357.07 280.007 356.94 280.269 356.94 280.593C356.94 280.898 357.061 281.128 357.303 281.283C357.544 281.438 357.979 281.586 358.608 281.728C359.242 281.869 359.755 282.037 360.146 282.233C360.538 282.429 360.828 282.666 361.015 282.944C361.206 283.218 361.302 283.553 361.302 283.949C361.302 284.61 361.037 285.141 360.509 285.542C359.98 285.938 359.294 286.137 358.451 286.137C357.859 286.137 357.335 286.032 356.879 285.822C356.423 285.613 356.065 285.321 355.806 284.947C355.55 284.569 355.423 284.161 355.423 283.724H356.688C356.71 284.147 356.879 284.485 357.193 284.735C357.512 284.981 357.932 285.104 358.451 285.104C358.93 285.104 359.312 285.009 359.6 284.817C359.891 284.621 360.037 284.362 360.037 284.038ZM364.665 276.812V278.604H366.046V279.581H364.665V284.168C364.665 284.464 364.727 284.688 364.85 284.838C364.973 284.984 365.182 285.057 365.479 285.057C365.624 285.057 365.825 285.029 366.08 284.975V286C365.747 286.091 365.424 286.137 365.109 286.137C364.544 286.137 364.118 285.966 363.831 285.624C363.544 285.282 363.4 284.797 363.4 284.168V279.581H362.054V278.604H363.4V276.812H364.665ZM368.903 286H367.639V278.604H368.903V286ZM367.536 276.642C367.536 276.437 367.598 276.263 367.721 276.122C367.848 275.981 368.035 275.91 368.281 275.91C368.527 275.91 368.714 275.981 368.842 276.122C368.969 276.263 369.033 276.437 369.033 276.642C369.033 276.847 368.969 277.018 368.842 277.154C368.714 277.291 368.527 277.359 368.281 277.359C368.035 277.359 367.848 277.291 367.721 277.154C367.598 277.018 367.536 276.847 367.536 276.642ZM370.599 282.233C370.599 281.509 370.74 280.857 371.022 280.278C371.31 279.7 371.706 279.253 372.212 278.938C372.722 278.624 373.303 278.467 373.955 278.467C374.962 278.467 375.776 278.815 376.396 279.513C377.02 280.21 377.332 281.137 377.332 282.295V282.384C377.332 283.104 377.193 283.751 376.915 284.325C376.642 284.895 376.247 285.339 375.732 285.658C375.222 285.977 374.634 286.137 373.969 286.137C372.966 286.137 372.153 285.788 371.528 285.091C370.909 284.394 370.599 283.471 370.599 282.322V282.233ZM371.87 282.384C371.87 283.204 372.059 283.863 372.438 284.359C372.82 284.856 373.331 285.104 373.969 285.104C374.611 285.104 375.122 284.854 375.5 284.353C375.878 283.847 376.067 283.14 376.067 282.233C376.067 281.422 375.874 280.766 375.486 280.265C375.104 279.759 374.593 279.506 373.955 279.506C373.331 279.506 372.827 279.754 372.444 280.251C372.062 280.748 371.87 281.459 371.87 282.384ZM380.114 278.604L380.155 279.533C380.72 278.822 381.459 278.467 382.37 278.467C383.933 278.467 384.722 279.349 384.735 281.112V286H383.471V281.105C383.466 280.572 383.343 280.178 383.102 279.923C382.865 279.668 382.493 279.54 381.987 279.54C381.577 279.54 381.217 279.649 380.907 279.868C380.597 280.087 380.356 280.374 380.183 280.729V286H378.918V278.604H380.114Z" fill="black"/>
<ellipse cx="454" cy="248.5" rx="9" ry="9.5" fill="#C4C4C4"/>
<path d="M434.757 281.345C434.757 282.306 434.604 283.136 434.299 283.833C433.993 284.526 433.565 285.068 433.014 285.46L434.791 286.854L433.896 287.682L431.797 286.014C431.469 286.096 431.122 286.137 430.758 286.137C429.974 286.137 429.279 285.945 428.673 285.562C428.067 285.175 427.595 284.626 427.258 283.915C426.925 283.2 426.754 282.372 426.745 281.434V280.716C426.745 279.759 426.911 278.913 427.244 278.18C427.577 277.446 428.046 276.885 428.652 276.498C429.263 276.106 429.96 275.91 430.744 275.91C431.546 275.91 432.25 276.104 432.856 276.491C433.467 276.879 433.937 277.437 434.265 278.166C434.593 278.891 434.757 279.738 434.757 280.709V281.345ZM433.444 280.702C433.444 279.531 433.21 278.629 432.74 277.995C432.275 277.357 431.61 277.038 430.744 277.038C429.919 277.038 429.268 277.355 428.789 277.988C428.315 278.617 428.071 279.492 428.058 280.613V281.345C428.058 282.484 428.295 283.382 428.769 284.038C429.247 284.694 429.91 285.022 430.758 285.022C431.605 285.022 432.262 284.715 432.727 284.1C433.191 283.48 433.431 282.593 433.444 281.44V280.702ZM441.148 285.269C440.656 285.847 439.934 286.137 438.981 286.137C438.193 286.137 437.591 285.909 437.177 285.453C436.767 284.993 436.559 284.314 436.555 283.416V278.604H437.819V283.382C437.819 284.503 438.275 285.063 439.187 285.063C440.153 285.063 440.795 284.703 441.114 283.983V278.604H442.379V286H441.176L441.148 285.269ZM447.376 286.137C446.373 286.137 445.558 285.809 444.929 285.152C444.3 284.492 443.985 283.61 443.985 282.507V282.274C443.985 281.541 444.124 280.887 444.402 280.312C444.685 279.734 445.077 279.283 445.578 278.959C446.084 278.631 446.631 278.467 447.219 278.467C448.18 278.467 448.928 278.784 449.461 279.417C449.994 280.05 450.261 280.957 450.261 282.138V282.664H445.25C445.268 283.393 445.48 283.983 445.886 284.435C446.296 284.881 446.815 285.104 447.444 285.104C447.891 285.104 448.269 285.013 448.579 284.831C448.889 284.649 449.16 284.407 449.393 284.106L450.165 284.708C449.545 285.66 448.616 286.137 447.376 286.137ZM447.219 279.506C446.708 279.506 446.28 279.693 445.934 280.066C445.587 280.436 445.373 280.955 445.291 281.625H448.996V281.529C448.96 280.887 448.786 280.39 448.477 280.039C448.167 279.684 447.747 279.506 447.219 279.506ZM456.037 284.038C456.037 283.696 455.907 283.432 455.647 283.245C455.392 283.054 454.943 282.89 454.301 282.753C453.663 282.616 453.155 282.452 452.776 282.261C452.403 282.069 452.125 281.841 451.942 281.577C451.765 281.313 451.676 280.998 451.676 280.634C451.676 280.028 451.931 279.515 452.441 279.096C452.956 278.676 453.613 278.467 454.41 278.467C455.249 278.467 455.928 278.683 456.447 279.116C456.971 279.549 457.233 280.103 457.233 280.777H455.962C455.962 280.431 455.814 280.132 455.518 279.882C455.226 279.631 454.857 279.506 454.41 279.506C453.95 279.506 453.59 279.606 453.33 279.807C453.07 280.007 452.94 280.269 452.94 280.593C452.94 280.898 453.061 281.128 453.303 281.283C453.544 281.438 453.979 281.586 454.608 281.728C455.242 281.869 455.755 282.037 456.146 282.233C456.538 282.429 456.828 282.666 457.015 282.944C457.206 283.218 457.302 283.553 457.302 283.949C457.302 284.61 457.037 285.141 456.509 285.542C455.98 285.938 455.294 286.137 454.451 286.137C453.859 286.137 453.335 286.032 452.879 285.822C452.423 285.613 452.065 285.321 451.806 284.947C451.55 284.569 451.423 284.161 451.423 283.724H452.688C452.71 284.147 452.879 284.485 453.193 284.735C453.512 284.981 453.932 285.104 454.451 285.104C454.93 285.104 455.312 285.009 455.6 284.817C455.891 284.621 456.037 284.362 456.037 284.038ZM460.665 276.812V278.604H462.046V279.581H460.665V284.168C460.665 284.464 460.727 284.688 460.85 284.838C460.973 284.984 461.182 285.057 461.479 285.057C461.624 285.057 461.825 285.029 462.08 284.975V286C461.747 286.091 461.424 286.137 461.109 286.137C460.544 286.137 460.118 285.966 459.831 285.624C459.544 285.282 459.4 284.797 459.4 284.168V279.581H458.054V278.604H459.4V276.812H460.665ZM464.903 286H463.639V278.604H464.903V286ZM463.536 276.642C463.536 276.437 463.598 276.263 463.721 276.122C463.848 275.981 464.035 275.91 464.281 275.91C464.527 275.91 464.714 275.981 464.842 276.122C464.969 276.263 465.033 276.437 465.033 276.642C465.033 276.847 464.969 277.018 464.842 277.154C464.714 277.291 464.527 277.359 464.281 277.359C464.035 277.359 463.848 277.291 463.721 277.154C463.598 277.018 463.536 276.847 463.536 276.642ZM466.599 282.233C466.599 281.509 466.74 280.857 467.022 280.278C467.31 279.7 467.706 279.253 468.212 278.938C468.722 278.624 469.303 278.467 469.955 278.467C470.962 278.467 471.776 278.815 472.396 279.513C473.02 280.21 473.332 281.137 473.332 282.295V282.384C473.332 283.104 473.193 283.751 472.915 284.325C472.642 284.895 472.247 285.339 471.732 285.658C471.222 285.977 470.634 286.137 469.969 286.137C468.966 286.137 468.153 285.788 467.528 285.091C466.909 284.394 466.599 283.471 466.599 282.322V282.233ZM467.87 282.384C467.87 283.204 468.059 283.863 468.438 284.359C468.82 284.856 469.331 285.104 469.969 285.104C470.611 285.104 471.122 284.854 471.5 284.353C471.878 283.847 472.067 283.14 472.067 282.233C472.067 281.422 471.874 280.766 471.486 280.265C471.104 279.759 470.593 279.506 469.955 279.506C469.331 279.506 468.827 279.754 468.444 280.251C468.062 280.748 467.87 281.459 467.87 282.384ZM476.114 278.604L476.155 279.533C476.72 278.822 477.459 278.467 478.37 278.467C479.933 278.467 480.722 279.349 480.735 281.112V286H479.471V281.105C479.466 280.572 479.343 280.178 479.102 279.923C478.865 279.668 478.493 279.54 477.987 279.54C477.577 279.54 477.217 279.649 476.907 279.868C476.597 280.087 476.356 280.374 476.183 280.729V286H474.918V278.604H476.114Z" fill="black"/>
<circle cx="257" cy="248" r="9" fill="#C4C4C4"/>
<path d="M228.806 281.974H226.468V286H225.148V276.047H228.443C229.564 276.047 230.426 276.302 231.027 276.812C231.633 277.323 231.937 278.066 231.937 279.041C231.937 279.661 231.768 280.201 231.431 280.661C231.098 281.121 230.633 281.465 230.036 281.693L232.374 285.918V286H230.966L228.806 281.974ZM226.468 280.9H228.484C229.136 280.9 229.653 280.732 230.036 280.395C230.424 280.057 230.617 279.606 230.617 279.041C230.617 278.426 230.433 277.954 230.063 277.626C229.699 277.298 229.17 277.132 228.478 277.127H226.468V280.9ZM236.653 286.137C235.651 286.137 234.835 285.809 234.206 285.152C233.577 284.492 233.263 283.61 233.263 282.507V282.274C233.263 281.541 233.402 280.887 233.68 280.312C233.962 279.734 234.354 279.283 234.855 278.959C235.361 278.631 235.908 278.467 236.496 278.467C237.458 278.467 238.205 278.784 238.738 279.417C239.271 280.05 239.538 280.957 239.538 282.138V282.664H234.527C234.546 283.393 234.757 283.983 235.163 284.435C235.573 284.881 236.093 285.104 236.722 285.104C237.168 285.104 237.547 285.013 237.856 284.831C238.166 284.649 238.438 284.407 238.67 284.106L239.442 284.708C238.823 285.66 237.893 286.137 236.653 286.137ZM236.496 279.506C235.986 279.506 235.557 279.693 235.211 280.066C234.865 280.436 234.65 280.955 234.568 281.625H238.273V281.529C238.237 280.887 238.064 280.39 237.754 280.039C237.444 279.684 237.025 279.506 236.496 279.506ZM245.574 286C245.501 285.854 245.442 285.594 245.396 285.221C244.809 285.831 244.107 286.137 243.291 286.137C242.562 286.137 241.963 285.932 241.493 285.521C241.028 285.107 240.796 284.583 240.796 283.949C240.796 283.179 241.088 282.582 241.671 282.158C242.259 281.73 243.084 281.516 244.146 281.516H245.376V280.935C245.376 280.493 245.244 280.142 244.979 279.882C244.715 279.618 244.326 279.485 243.811 279.485C243.359 279.485 242.981 279.599 242.676 279.827C242.37 280.055 242.218 280.331 242.218 280.654H240.946C240.946 280.285 241.076 279.93 241.336 279.588C241.6 279.242 241.956 278.968 242.402 278.768C242.854 278.567 243.348 278.467 243.886 278.467C244.738 278.467 245.406 278.681 245.889 279.109C246.372 279.533 246.622 280.119 246.641 280.866V284.271C246.641 284.95 246.727 285.49 246.9 285.891V286H245.574ZM243.476 285.036C243.872 285.036 244.248 284.934 244.604 284.729C244.959 284.523 245.216 284.257 245.376 283.929V282.411H244.385C242.835 282.411 242.061 282.865 242.061 283.771C242.061 284.168 242.193 284.478 242.457 284.701C242.721 284.924 243.061 285.036 243.476 285.036ZM252.93 284.038C252.93 283.696 252.8 283.432 252.54 283.245C252.285 283.054 251.836 282.89 251.193 282.753C250.555 282.616 250.047 282.452 249.669 282.261C249.295 282.069 249.017 281.841 248.835 281.577C248.657 281.313 248.568 280.998 248.568 280.634C248.568 280.028 248.824 279.515 249.334 279.096C249.849 278.676 250.505 278.467 251.303 278.467C252.141 278.467 252.82 278.683 253.34 279.116C253.864 279.549 254.126 280.103 254.126 280.777H252.854C252.854 280.431 252.706 280.132 252.41 279.882C252.118 279.631 251.749 279.506 251.303 279.506C250.842 279.506 250.482 279.606 250.223 279.807C249.963 280.007 249.833 280.269 249.833 280.593C249.833 280.898 249.954 281.128 250.195 281.283C250.437 281.438 250.872 281.586 251.501 281.728C252.134 281.869 252.647 282.037 253.039 282.233C253.431 282.429 253.72 282.666 253.907 282.944C254.099 283.218 254.194 283.553 254.194 283.949C254.194 284.61 253.93 285.141 253.401 285.542C252.873 285.938 252.187 286.137 251.344 286.137C250.751 286.137 250.227 286.032 249.771 285.822C249.316 285.613 248.958 285.321 248.698 284.947C248.443 284.569 248.315 284.161 248.315 283.724H249.58C249.603 284.147 249.771 284.485 250.086 284.735C250.405 284.981 250.824 285.104 251.344 285.104C251.822 285.104 252.205 285.009 252.492 284.817C252.784 284.621 252.93 284.362 252.93 284.038ZM255.507 282.233C255.507 281.509 255.648 280.857 255.931 280.278C256.218 279.7 256.614 279.253 257.12 278.938C257.631 278.624 258.212 278.467 258.863 278.467C259.87 278.467 260.684 278.815 261.304 279.513C261.928 280.21 262.24 281.137 262.24 282.295V282.384C262.24 283.104 262.101 283.751 261.823 284.325C261.55 284.895 261.156 285.339 260.641 285.658C260.13 285.977 259.542 286.137 258.877 286.137C257.874 286.137 257.061 285.788 256.437 285.091C255.817 284.394 255.507 283.471 255.507 282.322V282.233ZM256.778 282.384C256.778 283.204 256.967 283.863 257.346 284.359C257.729 284.856 258.239 285.104 258.877 285.104C259.52 285.104 260.03 284.854 260.408 284.353C260.786 283.847 260.976 283.14 260.976 282.233C260.976 281.422 260.782 280.766 260.395 280.265C260.012 279.759 259.501 279.506 258.863 279.506C258.239 279.506 257.735 279.754 257.353 280.251C256.97 280.748 256.778 281.459 256.778 282.384ZM265.022 278.604L265.063 279.533C265.629 278.822 266.367 278.467 267.278 278.467C268.841 278.467 269.63 279.349 269.644 281.112V286H268.379V281.105C268.374 280.572 268.251 280.178 268.01 279.923C267.773 279.668 267.401 279.54 266.896 279.54C266.485 279.54 266.125 279.649 265.815 279.868C265.506 280.087 265.264 280.374 265.091 280.729V286H263.826V278.604H265.022ZM272.925 286H271.66V278.604H272.925V286ZM271.558 276.642C271.558 276.437 271.619 276.263 271.742 276.122C271.87 275.981 272.057 275.91 272.303 275.91C272.549 275.91 272.736 275.981 272.863 276.122C272.991 276.263 273.055 276.437 273.055 276.642C273.055 276.847 272.991 277.018 272.863 277.154C272.736 277.291 272.549 277.359 272.303 277.359C272.057 277.359 271.87 277.291 271.742 277.154C271.619 277.018 271.558 276.847 271.558 276.642ZM276.151 278.604L276.192 279.533C276.757 278.822 277.496 278.467 278.407 278.467C279.97 278.467 280.759 279.349 280.772 281.112V286H279.508V281.105C279.503 280.572 279.38 280.178 279.139 279.923C278.902 279.668 278.53 279.54 278.024 279.54C277.614 279.54 277.254 279.649 276.944 279.868C276.634 280.087 276.393 280.374 276.22 280.729V286H274.955V278.604H276.151ZM282.379 282.24C282.379 281.087 282.646 280.171 283.179 279.492C283.712 278.809 284.418 278.467 285.298 278.467C286.2 278.467 286.904 278.786 287.41 279.424L287.472 278.604H288.627V285.822C288.627 286.779 288.342 287.534 287.772 288.085C287.207 288.636 286.446 288.912 285.489 288.912C284.956 288.912 284.434 288.798 283.924 288.57C283.413 288.342 283.024 288.03 282.755 287.634L283.411 286.875C283.953 287.545 284.617 287.88 285.4 287.88C286.016 287.88 286.494 287.707 286.836 287.36C287.182 287.014 287.355 286.526 287.355 285.897V285.262C286.85 285.845 286.159 286.137 285.284 286.137C284.418 286.137 283.716 285.788 283.179 285.091C282.646 284.394 282.379 283.443 282.379 282.24ZM283.65 282.384C283.65 283.218 283.821 283.874 284.163 284.353C284.505 284.826 284.983 285.063 285.599 285.063C286.396 285.063 286.982 284.701 287.355 283.977V280.6C286.968 279.893 286.387 279.54 285.612 279.54C284.997 279.54 284.516 279.779 284.17 280.258C283.824 280.736 283.65 281.445 283.65 282.384Z" fill="black"/>
<circle cx="151" cy="248" r="9" fill="#C4C4C4"/>
<path d="M122.806 281.974H120.468V286H119.148V276.047H122.443C123.564 276.047 124.426 276.302 125.027 276.812C125.633 277.323 125.937 278.066 125.937 279.041C125.937 279.661 125.768 280.201 125.431 280.661C125.098 281.121 124.633 281.465 124.036 281.693L126.374 285.918V286H124.966L122.806 281.974ZM120.468 280.9H122.484C123.136 280.9 123.653 280.732 124.036 280.395C124.424 280.057 124.617 279.606 124.617 279.041C124.617 278.426 124.433 277.954 124.063 277.626C123.699 277.298 123.17 277.132 122.478 277.127H120.468V280.9ZM130.653 286.137C129.651 286.137 128.835 285.809 128.206 285.152C127.577 284.492 127.263 283.61 127.263 282.507V282.274C127.263 281.541 127.402 280.887 127.68 280.312C127.962 279.734 128.354 279.283 128.855 278.959C129.361 278.631 129.908 278.467 130.496 278.467C131.458 278.467 132.205 278.784 132.738 279.417C133.271 280.05 133.538 280.957 133.538 282.138V282.664H128.527C128.546 283.393 128.757 283.983 129.163 284.435C129.573 284.881 130.093 285.104 130.722 285.104C131.168 285.104 131.547 285.013 131.856 284.831C132.166 284.649 132.438 284.407 132.67 284.106L133.442 284.708C132.823 285.66 131.893 286.137 130.653 286.137ZM130.496 279.506C129.986 279.506 129.557 279.693 129.211 280.066C128.865 280.436 128.65 280.955 128.568 281.625H132.273V281.529C132.237 280.887 132.064 280.39 131.754 280.039C131.444 279.684 131.025 279.506 130.496 279.506ZM139.574 286C139.501 285.854 139.442 285.594 139.396 285.221C138.809 285.831 138.107 286.137 137.291 286.137C136.562 286.137 135.963 285.932 135.493 285.521C135.028 285.107 134.796 284.583 134.796 283.949C134.796 283.179 135.088 282.582 135.671 282.158C136.259 281.73 137.084 281.516 138.146 281.516H139.376V280.935C139.376 280.493 139.244 280.142 138.979 279.882C138.715 279.618 138.326 279.485 137.811 279.485C137.359 279.485 136.981 279.599 136.676 279.827C136.37 280.055 136.218 280.331 136.218 280.654H134.946C134.946 280.285 135.076 279.93 135.336 279.588C135.6 279.242 135.956 278.968 136.402 278.768C136.854 278.567 137.348 278.467 137.886 278.467C138.738 278.467 139.406 278.681 139.889 279.109C140.372 279.533 140.622 280.119 140.641 280.866V284.271C140.641 284.95 140.727 285.49 140.9 285.891V286H139.574ZM137.476 285.036C137.872 285.036 138.248 284.934 138.604 284.729C138.959 284.523 139.216 284.257 139.376 283.929V282.411H138.385C136.835 282.411 136.061 282.865 136.061 283.771C136.061 284.168 136.193 284.478 136.457 284.701C136.721 284.924 137.061 285.036 137.476 285.036ZM146.93 284.038C146.93 283.696 146.8 283.432 146.54 283.245C146.285 283.054 145.836 282.89 145.193 282.753C144.555 282.616 144.047 282.452 143.669 282.261C143.295 282.069 143.017 281.841 142.835 281.577C142.657 281.313 142.568 280.998 142.568 280.634C142.568 280.028 142.824 279.515 143.334 279.096C143.849 278.676 144.505 278.467 145.303 278.467C146.141 278.467 146.82 278.683 147.34 279.116C147.864 279.549 148.126 280.103 148.126 280.777H146.854C146.854 280.431 146.706 280.132 146.41 279.882C146.118 279.631 145.749 279.506 145.303 279.506C144.842 279.506 144.482 279.606 144.223 279.807C143.963 280.007 143.833 280.269 143.833 280.593C143.833 280.898 143.954 281.128 144.195 281.283C144.437 281.438 144.872 281.586 145.501 281.728C146.134 281.869 146.647 282.037 147.039 282.233C147.431 282.429 147.72 282.666 147.907 282.944C148.099 283.218 148.194 283.553 148.194 283.949C148.194 284.61 147.93 285.141 147.401 285.542C146.873 285.938 146.187 286.137 145.344 286.137C144.751 286.137 144.227 286.032 143.771 285.822C143.316 285.613 142.958 285.321 142.698 284.947C142.443 284.569 142.315 284.161 142.315 283.724H143.58C143.603 284.147 143.771 284.485 144.086 284.735C144.405 284.981 144.824 285.104 145.344 285.104C145.822 285.104 146.205 285.009 146.492 284.817C146.784 284.621 146.93 284.362 146.93 284.038ZM149.507 282.233C149.507 281.509 149.648 280.857 149.931 280.278C150.218 279.7 150.614 279.253 151.12 278.938C151.631 278.624 152.212 278.467 152.863 278.467C153.87 278.467 154.684 278.815 155.304 279.513C155.928 280.21 156.24 281.137 156.24 282.295V282.384C156.24 283.104 156.101 283.751 155.823 284.325C155.55 284.895 155.156 285.339 154.641 285.658C154.13 285.977 153.542 286.137 152.877 286.137C151.874 286.137 151.061 285.788 150.437 285.091C149.817 284.394 149.507 283.471 149.507 282.322V282.233ZM150.778 282.384C150.778 283.204 150.967 283.863 151.346 284.359C151.729 284.856 152.239 285.104 152.877 285.104C153.52 285.104 154.03 284.854 154.408 284.353C154.786 283.847 154.976 283.14 154.976 282.233C154.976 281.422 154.782 280.766 154.395 280.265C154.012 279.759 153.501 279.506 152.863 279.506C152.239 279.506 151.735 279.754 151.353 280.251C150.97 280.748 150.778 281.459 150.778 282.384ZM159.022 278.604L159.063 279.533C159.629 278.822 160.367 278.467 161.278 278.467C162.841 278.467 163.63 279.349 163.644 281.112V286H162.379V281.105C162.374 280.572 162.251 280.178 162.01 279.923C161.773 279.668 161.401 279.54 160.896 279.54C160.485 279.54 160.125 279.649 159.815 279.868C159.506 280.087 159.264 280.374 159.091 280.729V286H157.826V278.604H159.022ZM166.925 286H165.66V278.604H166.925V286ZM165.558 276.642C165.558 276.437 165.619 276.263 165.742 276.122C165.87 275.981 166.057 275.91 166.303 275.91C166.549 275.91 166.736 275.981 166.863 276.122C166.991 276.263 167.055 276.437 167.055 276.642C167.055 276.847 166.991 277.018 166.863 277.154C166.736 277.291 166.549 277.359 166.303 277.359C166.057 277.359 165.87 277.291 165.742 277.154C165.619 277.018 165.558 276.847 165.558 276.642ZM170.151 278.604L170.192 279.533C170.757 278.822 171.496 278.467 172.407 278.467C173.97 278.467 174.759 279.349 174.772 281.112V286H173.508V281.105C173.503 280.572 173.38 280.178 173.139 279.923C172.902 279.668 172.53 279.54 172.024 279.54C171.614 279.54 171.254 279.649 170.944 279.868C170.634 280.087 170.393 280.374 170.22 280.729V286H168.955V278.604H170.151ZM176.379 282.24C176.379 281.087 176.646 280.171 177.179 279.492C177.712 278.809 178.418 278.467 179.298 278.467C180.2 278.467 180.904 278.786 181.41 279.424L181.472 278.604H182.627V285.822C182.627 286.779 182.342 287.534 181.772 288.085C181.207 288.636 180.446 288.912 179.489 288.912C178.956 288.912 178.434 288.798 177.924 288.57C177.413 288.342 177.024 288.03 176.755 287.634L177.411 286.875C177.953 287.545 178.617 287.88 179.4 287.88C180.016 287.88 180.494 287.707 180.836 287.36C181.182 287.014 181.355 286.526 181.355 285.897V285.262C180.85 285.845 180.159 286.137 179.284 286.137C178.418 286.137 177.716 285.788 177.179 285.091C176.646 284.394 176.379 283.443 176.379 282.24ZM177.65 282.384C177.65 283.218 177.821 283.874 178.163 284.353C178.505 284.826 178.983 285.063 179.599 285.063C180.396 285.063 180.982 284.701 181.355 283.977V280.6C180.968 279.893 180.387 279.54 179.612 279.54C178.997 279.54 178.516 279.779 178.17 280.258C177.824 280.736 177.65 281.445 177.65 282.384Z" fill="black"/>
<circle cx="257" cy="384" r="9" fill="#C4C4C4"/>
<path d="M219.563 422H218.251V412.047H219.563V422ZM226.078 420.038C226.078 419.696 225.948 419.432 225.688 419.245C225.433 419.054 224.984 418.89 224.342 418.753C223.704 418.616 223.196 418.452 222.817 418.261C222.444 418.069 222.166 417.841 221.983 417.577C221.806 417.313 221.717 416.998 221.717 416.634C221.717 416.028 221.972 415.515 222.482 415.096C222.997 414.676 223.654 414.467 224.451 414.467C225.29 414.467 225.969 414.683 226.488 415.116C227.012 415.549 227.274 416.103 227.274 416.777H226.003C226.003 416.431 225.855 416.132 225.559 415.882C225.267 415.631 224.898 415.506 224.451 415.506C223.991 415.506 223.631 415.606 223.371 415.807C223.111 416.007 222.981 416.269 222.981 416.593C222.981 416.898 223.102 417.128 223.344 417.283C223.585 417.438 224.021 417.586 224.649 417.728C225.283 417.869 225.796 418.037 226.188 418.233C226.579 418.429 226.869 418.666 227.056 418.944C227.247 419.218 227.343 419.553 227.343 419.949C227.343 420.61 227.078 421.141 226.55 421.542C226.021 421.938 225.335 422.137 224.492 422.137C223.9 422.137 223.376 422.032 222.92 421.822C222.464 421.613 222.106 421.321 221.847 420.947C221.591 420.569 221.464 420.161 221.464 419.724H222.729C222.751 420.147 222.92 420.485 223.234 420.735C223.553 420.981 223.973 421.104 224.492 421.104C224.971 421.104 225.354 421.009 225.641 420.817C225.932 420.621 226.078 420.362 226.078 420.038ZM232.887 422V415.581H231.718V414.604H232.887V413.975C232.887 413.15 233.121 412.507 233.591 412.047C234.065 411.587 234.732 411.356 235.594 411.356C236.104 411.356 236.749 411.495 237.528 411.773L237.316 412.84C236.747 412.612 236.204 412.498 235.689 412.498C235.147 412.498 234.755 412.621 234.514 412.867C234.277 413.109 234.158 413.473 234.158 413.961V414.604H235.669V415.581H234.158V422H232.887ZM238.157 422H236.886V414.604H238.157V422ZM243.79 415.738C243.599 415.706 243.391 415.69 243.168 415.69C242.339 415.69 241.776 416.044 241.479 416.75V422H240.215V414.604H241.445L241.466 415.458C241.881 414.797 242.468 414.467 243.229 414.467C243.476 414.467 243.662 414.499 243.79 414.562V415.738ZM249.266 420.038C249.266 419.696 249.136 419.432 248.876 419.245C248.621 419.054 248.172 418.89 247.529 418.753C246.891 418.616 246.383 418.452 246.005 418.261C245.631 418.069 245.353 417.841 245.171 417.577C244.993 417.313 244.904 416.998 244.904 416.634C244.904 416.028 245.16 415.515 245.67 415.096C246.185 414.676 246.841 414.467 247.639 414.467C248.477 414.467 249.156 414.683 249.676 415.116C250.2 415.549 250.462 416.103 250.462 416.777H249.19C249.19 416.431 249.042 416.132 248.746 415.882C248.454 415.631 248.085 415.506 247.639 415.506C247.178 415.506 246.818 415.606 246.559 415.807C246.299 416.007 246.169 416.269 246.169 416.593C246.169 416.898 246.29 417.128 246.531 417.283C246.773 417.438 247.208 417.586 247.837 417.728C248.47 417.869 248.983 418.037 249.375 418.233C249.767 418.429 250.056 418.666 250.243 418.944C250.435 419.218 250.53 419.553 250.53 419.949C250.53 420.61 250.266 421.141 249.737 421.542C249.209 421.938 248.523 422.137 247.68 422.137C247.087 422.137 246.563 422.032 246.107 421.822C245.652 421.613 245.294 421.321 245.034 420.947C244.779 420.569 244.651 420.161 244.651 419.724H245.916C245.939 420.147 246.107 420.485 246.422 420.735C246.741 420.981 247.16 421.104 247.68 421.104C248.158 421.104 248.541 421.009 248.828 420.817C249.12 420.621 249.266 420.362 249.266 420.038ZM253.894 412.812V414.604H255.274V415.581H253.894V420.168C253.894 420.464 253.955 420.688 254.078 420.838C254.201 420.984 254.411 421.057 254.707 421.057C254.853 421.057 255.053 421.029 255.309 420.975V422C254.976 422.091 254.652 422.137 254.338 422.137C253.773 422.137 253.347 421.966 253.06 421.624C252.772 421.282 252.629 420.797 252.629 420.168V415.581H251.282V414.604H252.629V412.812H253.894ZM261.495 415.499C262.056 414.811 262.785 414.467 263.683 414.467C265.246 414.467 266.034 415.349 266.048 417.112V422H264.783V417.105C264.779 416.572 264.656 416.178 264.414 415.923C264.177 415.668 263.806 415.54 263.3 415.54C262.89 415.54 262.53 415.649 262.22 415.868C261.91 416.087 261.668 416.374 261.495 416.729V422H260.23V411.5H261.495V415.499ZM272.508 422C272.435 421.854 272.376 421.594 272.33 421.221C271.742 421.831 271.04 422.137 270.225 422.137C269.495 422.137 268.896 421.932 268.427 421.521C267.962 421.107 267.729 420.583 267.729 419.949C267.729 419.179 268.021 418.582 268.604 418.158C269.192 417.73 270.017 417.516 271.079 417.516H272.31V416.935C272.31 416.493 272.177 416.142 271.913 415.882C271.649 415.618 271.259 415.485 270.744 415.485C270.293 415.485 269.915 415.599 269.609 415.827C269.304 416.055 269.151 416.331 269.151 416.654H267.88C267.88 416.285 268.01 415.93 268.27 415.588C268.534 415.242 268.889 414.968 269.336 414.768C269.787 414.567 270.282 414.467 270.819 414.467C271.672 414.467 272.339 414.681 272.822 415.109C273.305 415.533 273.556 416.119 273.574 416.866V420.271C273.574 420.95 273.661 421.49 273.834 421.891V422H272.508ZM270.409 421.036C270.806 421.036 271.182 420.934 271.537 420.729C271.893 420.523 272.15 420.257 272.31 419.929V418.411H271.318C269.769 418.411 268.994 418.865 268.994 419.771C268.994 420.168 269.126 420.478 269.391 420.701C269.655 420.924 269.994 421.036 270.409 421.036ZM276.753 414.604L276.794 415.533C277.359 414.822 278.097 414.467 279.009 414.467C280.572 414.467 281.36 415.349 281.374 417.112V422H280.109V417.105C280.105 416.572 279.982 416.178 279.74 415.923C279.503 415.668 279.132 415.54 278.626 415.54C278.216 415.54 277.856 415.649 277.546 415.868C277.236 416.087 276.994 416.374 276.821 416.729V422H275.557V414.604H276.753ZM282.974 418.24C282.974 417.105 283.243 416.194 283.78 415.506C284.318 414.813 285.022 414.467 285.893 414.467C286.758 414.467 287.444 414.763 287.95 415.355V411.5H289.215V422H288.053L287.991 421.207C287.485 421.827 286.781 422.137 285.879 422.137C285.022 422.137 284.323 421.786 283.78 421.084C283.243 420.382 282.974 419.466 282.974 418.336V418.24ZM284.238 418.384C284.238 419.222 284.411 419.879 284.758 420.353C285.104 420.826 285.583 421.063 286.193 421.063C286.995 421.063 287.581 420.703 287.95 419.983V416.586C287.572 415.889 286.991 415.54 286.207 415.54C285.587 415.54 285.104 415.779 284.758 416.258C284.411 416.736 284.238 417.445 284.238 418.384ZM292.667 419.197C292.676 418.655 292.738 418.227 292.852 417.912C292.965 417.598 293.198 417.249 293.549 416.866L294.444 415.943C294.827 415.51 295.019 415.046 295.019 414.549C295.019 414.07 294.893 413.697 294.643 413.428C294.392 413.154 294.027 413.018 293.549 413.018C293.084 413.018 292.71 413.141 292.428 413.387C292.145 413.633 292.004 413.963 292.004 414.378H290.739C290.748 413.64 291.01 413.045 291.525 412.594C292.045 412.138 292.719 411.91 293.549 411.91C294.41 411.91 295.08 412.143 295.559 412.607C296.042 413.068 296.283 413.701 296.283 414.508C296.283 415.305 295.914 416.091 295.176 416.866L294.431 417.604C294.098 417.974 293.932 418.505 293.932 419.197H292.667ZM292.612 421.364C292.612 421.159 292.674 420.988 292.797 420.852C292.924 420.71 293.111 420.64 293.357 420.64C293.604 420.64 293.79 420.71 293.918 420.852C294.046 420.988 294.109 421.159 294.109 421.364C294.109 421.569 294.046 421.74 293.918 421.877C293.79 422.009 293.604 422.075 293.357 422.075C293.111 422.075 292.924 422.009 292.797 421.877C292.674 421.74 292.612 421.569 292.612 421.364Z" fill="black"/>
<line x1="300.293" y1="111.595" x2="394.293" y2="179.595" stroke="#C4C4C4"/>
<line x1="300.301" y1="112.399" x2="210.301" y2="180.399" stroke="#C4C4C4"/>
<line x1="210.378" y1="180.328" x2="151.378" y2="248.328" stroke="#C4C4C4"/>
<line x1="151.5" y1="248" x2="151.5" y2="316" stroke="#C4C4C4"/>
<line x1="210.411" y1="179.716" x2="257.411" y2="247.716" stroke="#C4C4C4"/>
<line x1="257.5" y1="248" x2="257.5" y2="316" stroke="#C4C4C4"/>
<line x1="257.5" y1="316" x2="257.5" y2="384" stroke="#C4C4C4"/>
<line x1="394.443" y1="179.231" x2="358.443" y2="248.231" stroke="#C4C4C4"/>
<line x1="394.375" y1="179.669" x2="454.375" y2="247.669" stroke="#C4C4C4"/>
<circle cx="257" cy="316" r="9" fill="#C4C4C4"/>
<path d="M239.088 349.563C237.962 349.24 237.142 348.843 236.627 348.374C236.117 347.9 235.861 347.317 235.861 346.624C235.861 345.84 236.174 345.193 236.798 344.683C237.427 344.168 238.243 343.91 239.245 343.91C239.929 343.91 240.537 344.042 241.07 344.307C241.608 344.571 242.023 344.936 242.314 345.4C242.611 345.865 242.759 346.373 242.759 346.925H241.439C241.439 346.323 241.248 345.852 240.865 345.51C240.482 345.163 239.942 344.99 239.245 344.99C238.598 344.99 238.092 345.134 237.728 345.421C237.368 345.703 237.188 346.098 237.188 346.604C237.188 347.009 237.358 347.353 237.7 347.636C238.047 347.914 238.632 348.169 239.457 348.401C240.286 348.634 240.934 348.891 241.398 349.174C241.868 349.452 242.214 349.778 242.438 350.151C242.665 350.525 242.779 350.965 242.779 351.471C242.779 352.277 242.465 352.924 241.836 353.412C241.207 353.895 240.366 354.137 239.313 354.137C238.63 354.137 237.992 354.007 237.399 353.747C236.807 353.483 236.349 353.123 236.025 352.667C235.706 352.211 235.547 351.694 235.547 351.115H236.866C236.866 351.717 237.087 352.193 237.529 352.544C237.976 352.89 238.571 353.063 239.313 353.063C240.006 353.063 240.537 352.922 240.906 352.64C241.275 352.357 241.46 351.972 241.46 351.484C241.46 350.997 241.289 350.621 240.947 350.356C240.605 350.088 239.986 349.823 239.088 349.563ZM243.935 350.233C243.935 349.509 244.076 348.857 244.358 348.278C244.646 347.7 245.042 347.253 245.548 346.938C246.058 346.624 246.639 346.467 247.291 346.467C248.298 346.467 249.112 346.815 249.731 347.513C250.356 348.21 250.668 349.137 250.668 350.295V350.384C250.668 351.104 250.529 351.751 250.251 352.325C249.978 352.895 249.583 353.339 249.068 353.658C248.558 353.977 247.97 354.137 247.305 354.137C246.302 354.137 245.489 353.788 244.864 353.091C244.244 352.394 243.935 351.471 243.935 350.322V350.233ZM245.206 350.384C245.206 351.204 245.395 351.863 245.773 352.359C246.156 352.856 246.667 353.104 247.305 353.104C247.947 353.104 248.458 352.854 248.836 352.353C249.214 351.847 249.403 351.14 249.403 350.233C249.403 349.422 249.21 348.766 248.822 348.265C248.439 347.759 247.929 347.506 247.291 347.506C246.667 347.506 246.163 347.754 245.78 348.251C245.397 348.748 245.206 349.459 245.206 350.384ZM256.82 353.269C256.328 353.847 255.606 354.137 254.653 354.137C253.865 354.137 253.263 353.909 252.849 353.453C252.438 352.993 252.231 352.314 252.227 351.416V346.604H253.491V351.382C253.491 352.503 253.947 353.063 254.858 353.063C255.825 353.063 256.467 352.703 256.786 351.983V346.604H258.051V354H256.848L256.82 353.269ZM263.554 347.738C263.362 347.706 263.155 347.69 262.932 347.69C262.102 347.69 261.539 348.044 261.243 348.75V354H259.979V346.604H261.209L261.229 347.458C261.644 346.797 262.232 346.467 262.993 346.467C263.239 346.467 263.426 346.499 263.554 346.562V347.738ZM267.553 353.104C268.004 353.104 268.398 352.968 268.735 352.694C269.073 352.421 269.259 352.079 269.296 351.669H270.492C270.469 352.093 270.324 352.496 270.055 352.879C269.786 353.262 269.426 353.567 268.975 353.795C268.528 354.023 268.054 354.137 267.553 354.137C266.546 354.137 265.743 353.802 265.146 353.132C264.554 352.457 264.258 351.537 264.258 350.37V350.158C264.258 349.438 264.39 348.798 264.654 348.237C264.919 347.677 265.297 347.242 265.789 346.932C266.286 346.622 266.871 346.467 267.546 346.467C268.375 346.467 269.063 346.715 269.61 347.212C270.162 347.709 270.456 348.354 270.492 349.146H269.296C269.259 348.668 269.077 348.276 268.749 347.971C268.425 347.661 268.024 347.506 267.546 347.506C266.903 347.506 266.404 347.738 266.049 348.203C265.698 348.663 265.522 349.331 265.522 350.206V350.445C265.522 351.298 265.698 351.954 266.049 352.414C266.4 352.874 266.901 353.104 267.553 353.104ZM274.983 354.137C273.981 354.137 273.165 353.809 272.536 353.152C271.907 352.492 271.593 351.61 271.593 350.507V350.274C271.593 349.541 271.732 348.887 272.01 348.312C272.292 347.734 272.684 347.283 273.186 346.959C273.691 346.631 274.238 346.467 274.826 346.467C275.788 346.467 276.535 346.784 277.068 347.417C277.602 348.05 277.868 348.957 277.868 350.138V350.664H272.857C272.876 351.393 273.088 351.983 273.493 352.435C273.903 352.881 274.423 353.104 275.052 353.104C275.498 353.104 275.877 353.013 276.187 352.831C276.496 352.649 276.768 352.407 277 352.106L277.772 352.708C277.153 353.66 276.223 354.137 274.983 354.137ZM274.826 347.506C274.316 347.506 273.887 347.693 273.541 348.066C273.195 348.436 272.98 348.955 272.898 349.625H276.604V349.529C276.567 348.887 276.394 348.39 276.084 348.039C275.774 347.684 275.355 347.506 274.826 347.506Z" fill="black"/>
<circle cx="151" cy="316" r="9" fill="#C4C4C4"/>
<path d="M119.651 351.402H115.481L114.545 354H113.191L116.992 344.047H118.141L121.948 354H120.602L119.651 351.402ZM115.878 350.322H119.262L117.566 345.667L115.878 350.322ZM127.396 352.038C127.396 351.696 127.267 351.432 127.007 351.245C126.752 351.054 126.303 350.89 125.66 350.753C125.022 350.616 124.514 350.452 124.136 350.261C123.762 350.069 123.484 349.841 123.302 349.577C123.124 349.313 123.035 348.998 123.035 348.634C123.035 348.028 123.29 347.515 123.801 347.096C124.316 346.676 124.972 346.467 125.77 346.467C126.608 346.467 127.287 346.683 127.807 347.116C128.331 347.549 128.593 348.103 128.593 348.777H127.321C127.321 348.431 127.173 348.132 126.877 347.882C126.585 347.631 126.216 347.506 125.77 347.506C125.309 347.506 124.949 347.606 124.689 347.807C124.43 348.007 124.3 348.269 124.3 348.593C124.3 348.898 124.421 349.128 124.662 349.283C124.904 349.438 125.339 349.586 125.968 349.728C126.601 349.869 127.114 350.037 127.506 350.233C127.898 350.429 128.187 350.666 128.374 350.944C128.565 351.218 128.661 351.553 128.661 351.949C128.661 352.61 128.397 353.141 127.868 353.542C127.34 353.938 126.654 354.137 125.811 354.137C125.218 354.137 124.694 354.032 124.238 353.822C123.783 353.613 123.425 353.321 123.165 352.947C122.91 352.569 122.782 352.161 122.782 351.724H124.047C124.07 352.147 124.238 352.485 124.553 352.735C124.872 352.981 125.291 353.104 125.811 353.104C126.289 353.104 126.672 353.009 126.959 352.817C127.251 352.621 127.396 352.362 127.396 352.038ZM134.615 352.038C134.615 351.696 134.485 351.432 134.226 351.245C133.97 351.054 133.521 350.89 132.879 350.753C132.241 350.616 131.733 350.452 131.354 350.261C130.981 350.069 130.703 349.841 130.521 349.577C130.343 349.313 130.254 348.998 130.254 348.634C130.254 348.028 130.509 347.515 131.02 347.096C131.535 346.676 132.191 346.467 132.988 346.467C133.827 346.467 134.506 346.683 135.025 347.116C135.549 347.549 135.812 348.103 135.812 348.777H134.54C134.54 348.431 134.392 348.132 134.096 347.882C133.804 347.631 133.435 347.506 132.988 347.506C132.528 347.506 132.168 347.606 131.908 347.807C131.648 348.007 131.519 348.269 131.519 348.593C131.519 348.898 131.639 349.128 131.881 349.283C132.122 349.438 132.558 349.586 133.187 349.728C133.82 349.869 134.333 350.037 134.725 350.233C135.117 350.429 135.406 350.666 135.593 350.944C135.784 351.218 135.88 351.553 135.88 351.949C135.88 352.61 135.616 353.141 135.087 353.542C134.558 353.938 133.872 354.137 133.029 354.137C132.437 354.137 131.913 354.032 131.457 353.822C131.001 353.613 130.644 353.321 130.384 352.947C130.129 352.569 130.001 352.161 130.001 351.724H131.266C131.288 352.147 131.457 352.485 131.771 352.735C132.09 352.981 132.51 353.104 133.029 353.104C133.508 353.104 133.891 353.009 134.178 352.817C134.469 352.621 134.615 352.362 134.615 352.038ZM142.094 353.269C141.602 353.847 140.879 354.137 139.927 354.137C139.138 354.137 138.537 353.909 138.122 353.453C137.712 352.993 137.505 352.314 137.5 351.416V346.604H138.765V351.382C138.765 352.503 139.22 353.063 140.132 353.063C141.098 353.063 141.741 352.703 142.06 351.983V346.604H143.324V354H142.121L142.094 353.269ZM146.441 346.604L146.476 347.424C147.018 346.786 147.749 346.467 148.67 346.467C149.704 346.467 150.409 346.863 150.782 347.656C151.028 347.301 151.347 347.014 151.739 346.795C152.136 346.576 152.603 346.467 153.141 346.467C154.763 346.467 155.588 347.326 155.615 349.044V354H154.351V349.119C154.351 348.59 154.23 348.196 153.988 347.937C153.747 347.672 153.341 347.54 152.771 347.54C152.302 347.54 151.912 347.681 151.603 347.964C151.293 348.242 151.113 348.618 151.062 349.092V354H149.791V349.153C149.791 348.078 149.265 347.54 148.212 347.54C147.382 347.54 146.815 347.893 146.51 348.6V354H145.245V346.604H146.441ZM163.777 350.384C163.777 351.509 163.52 352.416 163.005 353.104C162.49 353.793 161.793 354.137 160.913 354.137C160.015 354.137 159.309 353.852 158.794 353.282V356.844H157.529V346.604H158.685L158.746 347.424C159.261 346.786 159.977 346.467 160.893 346.467C161.781 346.467 162.483 346.802 162.998 347.472C163.518 348.142 163.777 349.074 163.777 350.268V350.384ZM162.513 350.24C162.513 349.406 162.335 348.748 161.979 348.265C161.624 347.782 161.136 347.54 160.517 347.54C159.751 347.54 159.177 347.88 158.794 348.559V352.093C159.172 352.767 159.751 353.104 160.53 353.104C161.136 353.104 161.617 352.865 161.973 352.387C162.333 351.904 162.513 351.188 162.513 350.24ZM167.106 344.812V346.604H168.487V347.581H167.106V352.168C167.106 352.464 167.168 352.688 167.291 352.838C167.414 352.984 167.624 353.057 167.92 353.057C168.066 353.057 168.266 353.029 168.521 352.975V354C168.189 354.091 167.865 354.137 167.551 354.137C166.986 354.137 166.56 353.966 166.272 353.624C165.985 353.282 165.842 352.797 165.842 352.168V347.581H164.495V346.604H165.842V344.812H167.106ZM171.345 354H170.08V346.604H171.345V354ZM169.978 344.642C169.978 344.437 170.039 344.263 170.162 344.122C170.29 343.981 170.477 343.91 170.723 343.91C170.969 343.91 171.156 343.981 171.283 344.122C171.411 344.263 171.475 344.437 171.475 344.642C171.475 344.847 171.411 345.018 171.283 345.154C171.156 345.291 170.969 345.359 170.723 345.359C170.477 345.359 170.29 345.291 170.162 345.154C170.039 345.018 169.978 344.847 169.978 344.642ZM173.04 350.233C173.04 349.509 173.181 348.857 173.464 348.278C173.751 347.7 174.147 347.253 174.653 346.938C175.164 346.624 175.745 346.467 176.396 346.467C177.404 346.467 178.217 346.815 178.837 347.513C179.461 348.21 179.773 349.137 179.773 350.295V350.384C179.773 351.104 179.634 351.751 179.356 352.325C179.083 352.895 178.689 353.339 178.174 353.658C177.663 353.977 177.076 354.137 176.41 354.137C175.408 354.137 174.594 353.788 173.97 353.091C173.35 352.394 173.04 351.471 173.04 350.322V350.233ZM174.312 350.384C174.312 351.204 174.501 351.863 174.879 352.359C175.262 352.856 175.772 353.104 176.41 353.104C177.053 353.104 177.563 352.854 177.941 352.353C178.32 351.847 178.509 351.14 178.509 350.233C178.509 349.422 178.315 348.766 177.928 348.265C177.545 347.759 177.035 347.506 176.396 347.506C175.772 347.506 175.269 347.754 174.886 348.251C174.503 348.748 174.312 349.459 174.312 350.384ZM182.556 346.604L182.597 347.533C183.162 346.822 183.9 346.467 184.812 346.467C186.375 346.467 187.163 347.349 187.177 349.112V354H185.912V349.105C185.908 348.572 185.785 348.178 185.543 347.923C185.306 347.668 184.935 347.54 184.429 347.54C184.019 347.54 183.659 347.649 183.349 347.868C183.039 348.087 182.797 348.374 182.624 348.729V354H181.359V346.604H182.556Z" fill="black"/>
</svg>
